<svg width="448" height="512" xmlns="http://www.w3.org/2000/svg" role="img" class="svg-inline--fa fa-arrow-right fa-w-14" data-icon="arrow-right" data-prefix="fas" focusable="false" aria-hidden="true">

 <g>
  <title>Layer 1</title>
  <path transform="rotate(45 224.025 256)" id="svg_1" d="m190.5,66.9l22.2,-22.2c9.4,-9.4 24.6,-9.4 33.9,0l194.4,194.3c9.4,9.4 9.4,24.6 0,33.9l-194.4,194.4c-9.4,9.4 -24.6,9.4 -33.9,0l-22.2,-22.2c-9.5,-9.5 -9.3,-25 0.4,-34.3l120.5,-114.8l-287.4,0c-13.3,0 -24,-10.7 -24,-24l0,-32c0,-13.3 10.7,-24 24,-24l287.4,0l-120.5,-114.8c-9.8,-9.3 -10,-24.8 -0.4,-34.3z" fill="currentColor"/>
  <path id="svg_2" d="m-467.5,596" opacity="NaN" stroke="#000" fill="#fff"/>
 </g>
</svg>